<svg width="98" height="55" viewBox="0 0 98 55" fill="none" xmlns="http://www.w3.org/2000/svg">
<path d="M1.485 50.5442H2.55V39.4142H1.485V50.5442ZM9.18832 50.6192C11.4983 50.6192 13.1933 48.9392 13.1933 46.5992C13.1933 44.2592 11.4983 42.5942 9.18832 42.5942C6.87832 42.5942 5.16832 44.2592 5.16832 46.5992C5.16832 48.9392 6.87832 50.6192 9.18832 50.6192ZM9.18832 49.6742C7.50832 49.6742 6.24832 48.4442 6.24832 46.5992C6.24832 44.7542 7.50832 43.5242 9.18832 43.5242C10.8683 43.5242 12.1133 44.7542 12.1133 46.5992C12.1133 48.4442 10.8683 49.6742 9.18832 49.6742ZM22.1026 42.6542V44.1692C21.4426 43.1342 20.3026 42.5942 18.9826 42.5942C16.7326 42.5942 15.0226 44.1392 15.0226 46.4042C15.0226 48.6692 16.7326 50.2442 18.9826 50.2442C20.2726 50.2442 21.3976 49.7192 22.0576 48.7142V49.7192C22.0576 51.6692 21.1426 52.5842 19.1476 52.5842C17.9326 52.5842 16.7926 52.1792 16.0426 51.5042L15.5026 52.3142C16.3276 53.0942 17.7376 53.5292 19.1776 53.5292C21.7876 53.5292 23.1226 52.2992 23.1226 49.5842V42.6542H22.1026ZM19.0876 49.2992C17.3476 49.2992 16.1026 48.1142 16.1026 46.4042C16.1026 44.6942 17.3476 43.5242 19.0876 43.5242C20.8276 43.5242 22.0876 44.6942 22.0876 46.4042C22.0876 48.1142 20.8276 49.2992 19.0876 49.2992ZM27.0908 40.9292C27.5408 40.9292 27.8708 40.5842 27.8708 40.1492C27.8708 39.7442 27.5258 39.4142 27.0908 39.4142C26.6558 39.4142 26.3108 39.7592 26.3108 40.1642C26.3108 40.5842 26.6558 40.9292 27.0908 40.9292ZM26.5508 50.5442H27.6158V42.6542H26.5508V50.5442ZM33.1441 50.6192C35.1991 50.6192 36.3991 49.7342 36.3991 48.3692C36.3991 45.3392 31.2841 46.9442 31.2841 44.8142C31.2841 44.0642 31.9141 43.5092 33.3391 43.5092C34.1491 43.5092 34.9741 43.7042 35.6641 44.1842L36.1291 43.3292C35.4691 42.8792 34.3591 42.5942 33.3391 42.5942C31.3291 42.5942 30.2191 43.5542 30.2191 44.8442C30.2191 47.9642 35.3341 46.3442 35.3341 48.3992C35.3341 49.1792 34.7191 49.6892 33.2191 49.6892C32.1091 49.6892 31.0441 49.2992 30.4141 48.8042L29.9341 49.6442C30.5791 50.1992 31.8391 50.6192 33.1441 50.6192ZM42.598 49.2992C42.298 49.5692 41.863 49.7042 41.428 49.7042C40.543 49.7042 40.063 49.1942 40.063 48.2642V43.5542H42.463V42.6542H40.063V40.9292H38.998V42.6542H37.588V43.5542H38.998V48.3242C38.998 49.7792 39.823 50.6192 41.308 50.6192C41.923 50.6192 42.553 50.4392 42.973 50.0642L42.598 49.2992ZM45.9018 40.9292C46.3518 40.9292 46.6818 40.5842 46.6818 40.1492C46.6818 39.7442 46.3368 39.4142 45.9018 39.4142C45.4668 39.4142 45.1218 39.7592 45.1218 40.1642C45.1218 40.5842 45.4668 40.9292 45.9018 40.9292ZM45.3618 50.5442H46.4268V42.6542H45.3618V50.5442ZM53.1101 50.6192C54.4451 50.6192 55.5701 50.0792 56.2001 49.0592L55.4051 48.5192C54.8651 49.3142 54.0251 49.6742 53.1101 49.6742C51.3851 49.6742 50.1251 48.4592 50.1251 46.5992C50.1251 44.7542 51.3851 43.5242 53.1101 43.5242C54.0251 43.5242 54.8651 43.8992 55.4051 44.6942L56.2001 44.1542C55.5701 43.1192 54.4451 42.5942 53.1101 42.5942C50.7551 42.5942 49.0451 44.2442 49.0451 46.5992C49.0451 48.9542 50.7551 50.6192 53.1101 50.6192ZM60.8572 50.6192C62.9122 50.6192 64.1122 49.7342 64.1122 48.3692C64.1122 45.3392 58.9972 46.9442 58.9972 44.8142C58.9972 44.0642 59.6272 43.5092 61.0522 43.5092C61.8622 43.5092 62.6872 43.7042 63.3772 44.1842L63.8422 43.3292C63.1822 42.8792 62.0722 42.5942 61.0522 42.5942C59.0422 42.5942 57.9322 43.5542 57.9322 44.8442C57.9322 47.9642 63.0472 46.3442 63.0472 48.3992C63.0472 49.1792 62.4322 49.6892 60.9322 49.6892C59.8222 49.6892 58.7572 49.2992 58.1272 48.8042L57.6472 49.6442C58.2922 50.1992 59.5522 50.6192 60.8572 50.6192Z" fill="#3284FF"/>
<path d="M31.9257 34.0258L31.8545 9.1117H24.9497L17.0484 22.3874L8.93349 9.1117H2.02872V34.0258H9.68092V23.0636L15.0908 31.7836H18.7924L24.2023 22.6721L24.2735 34.0258H31.9257ZM42.4644 34.0258H50.864V15.625H58.1603V9.1117H35.1681V15.625H42.4644V34.0258Z" fill="#3284FF"/>
<path d="M87.368 34.0258H97.0845L86.6206 20.0739L96.5862 9.1117H87.4392L79.2531 18.152V9.1117H70.9959V34.0258H79.2531V27.8685L81.1395 25.7686L87.368 34.0258Z" fill="#3284FF"/>
<path d="M59.848 4.77947C59.7125 4.83599 59.6241 4.96788 59.6241 5.11425V9.08457L50.5661 9.08457C50.3661 9.08457 50.2037 9.2469 50.2037 9.44691V15.2441C50.2037 15.4441 50.3661 15.6064 50.5661 15.6064L59.6241 15.6064V19.592C59.6241 19.7383 59.7126 19.8702 59.8474 19.9267C59.9828 19.9825 60.1387 19.9521 60.2423 19.8485L67.4945 12.6201C67.5627 12.552 67.6011 12.46 67.6011 12.3636C67.6011 12.2672 67.5627 12.1752 67.4953 12.1071L60.243 4.85773C60.1393 4.75409 59.9836 4.72294 59.848 4.77947Z" fill="#3284FF"/>
<line x1="34.7556" y1="12.3512" x2="67.6011" y2="12.3512" stroke="#040D21" stroke-width="0.5"/>
</svg>
